<svg width="147" height="34" viewBox="0 0 147 34" fill="none" xmlns="http://www.w3.org/2000/svg">
<g filter="url(#filter0_d_242_2609)">
<mask id="path-1-outside-1_242_2609" maskUnits="userSpaceOnUse" x="4" y="0" width="139" height="26" fill="black">
<rect fill="white" x="4" width="139" height="26"/>
<path d="M14.336 23.32C12.8853 23.32 11.5093 23.2027 10.208 22.968C8.928 22.712 7.88267 22.3493 7.072 21.88L8.288 16.088C9.20533 16.5787 10.2507 16.984 11.424 17.304C12.6187 17.624 13.7067 17.784 14.688 17.784C15.3707 17.784 15.9147 17.6987 16.32 17.528C16.7253 17.336 16.928 17.0693 16.928 16.728C16.928 16.3867 16.6187 16.12 16 15.928C15.3813 15.736 14.5813 15.4373 13.6 15.032C12.2347 14.456 11.2107 13.816 10.528 13.112C9.84533 12.3867 9.504 11.448 9.504 10.296C9.504 9.72 9.57867 9.12267 9.728 8.504C10.1973 6.328 11.232 4.71733 12.832 3.672C14.432 2.60533 16.8747 2.072 20.16 2.072C20.8427 2.072 21.5893 2.12533 22.4 2.232C23.2107 2.31733 24 2.43467 24.768 2.584C25.536 2.73333 26.1867 2.89333 26.72 3.064L25.472 8.888C24.4267 8.39733 23.4667 8.06667 22.592 7.896C21.7387 7.72533 20.9707 7.64 20.288 7.64C19.904 7.64 19.5093 7.66133 19.104 7.704C18.6987 7.74667 18.3467 7.832 18.048 7.96C17.7707 8.088 17.632 8.28 17.632 8.536C17.632 8.792 17.856 8.99467 18.304 9.144C18.7733 9.272 19.4773 9.48533 20.416 9.784C22.208 10.3173 23.4453 10.9893 24.128 11.8C24.832 12.6107 25.184 13.592 25.184 14.744C25.184 15.064 25.1627 15.3947 25.12 15.736C25.0773 16.0773 25.0133 16.44 24.928 16.824C24.6507 18.1253 24.1067 19.2667 23.296 20.248C22.5067 21.2293 21.3867 21.9867 19.936 22.52C18.4853 23.0533 16.6187 23.32 14.336 23.32ZM29.3943 23L28.9463 2.392H36.4983L36.4023 10.264L38.5143 5.88L39.2503 2.392H45.5543L46.1943 10.296L49.6183 2.392H57.1383L48.0183 23H41.4903L40.7223 14.872L36.3703 23H29.3943ZM54.3905 23L58.7425 2.392H66.4865L62.1345 23H54.3905ZM64.4217 23L68.7738 2.392H85.2538L84.0698 7.96H75.3338L74.9498 9.816H82.4698L81.2537 15.576H73.7338L72.1658 23H64.4217ZM86.1435 23L89.3115 7.96H84.0635L85.2475 2.392H103.488L102.304 7.96H97.0555L93.8875 23H86.1435ZM100.265 23L104.618 2.392H121.098L119.914 7.96H111.178L110.794 9.816H118.314L117.097 15.576H109.578L109.161 17.432H117.898L116.746 23H100.265ZM118.047 23L122.399 2.392H133.983C135.988 2.392 137.545 2.94667 138.655 4.056C139.785 5.16533 140.351 6.584 140.351 8.312C140.351 8.888 140.287 9.48533 140.159 10.104C139.881 11.4907 139.305 12.7067 138.431 13.752C137.577 14.776 136.5 15.64 135.199 16.344C135.54 16.6213 135.753 16.9733 135.839 17.4L137.087 23H129.023L127.967 18.424C127.881 17.976 127.625 17.752 127.199 17.752H126.879L125.791 23H118.047ZM128.191 11.704H130.079C131.337 11.704 132.073 11.1707 132.287 10.104C132.308 9.99733 132.319 9.90133 132.319 9.816C132.34 9.73067 132.351 9.64533 132.351 9.56C132.351 8.81333 131.86 8.44 130.879 8.44H128.863L128.191 11.704Z"/>
</mask>
<path d="M10.208 22.968L9.81577 24.9292L9.83438 24.9329L9.85307 24.9363L10.208 22.968ZM7.072 21.88L5.11467 21.4691L4.81727 22.8856L6.06993 23.6109L7.072 21.88ZM8.288 16.088L9.2313 14.3244L6.87882 13.0661L6.33067 15.6771L8.288 16.088ZM11.424 17.304L10.8978 19.2335L10.9065 19.2359L11.424 17.304ZM16.32 17.528L17.0961 19.3713L17.1365 19.3543L17.1762 19.3355L16.32 17.528ZM16 15.928L16.5928 14.0179L16.5928 14.0179L16 15.928ZM13.6 15.032L12.8226 16.8747L12.8295 16.8777L12.8365 16.8805L13.6 15.032ZM10.528 13.112L9.0716 14.4827L9.08182 14.4936L9.0922 14.5043L10.528 13.112ZM9.728 8.504L11.6722 8.97328L11.6779 8.94954L11.683 8.92568L9.728 8.504ZM12.832 3.672L13.9259 5.34633L13.9337 5.34125L13.9414 5.3361L12.832 3.672ZM22.4 2.232L22.1391 4.21491L22.1648 4.21829L22.1906 4.22101L22.4 2.232ZM24.768 2.584L24.3863 4.54723L24.3863 4.54723L24.768 2.584ZM26.72 3.064L28.6756 3.48306L29.0553 1.71138L27.3296 1.15915L26.72 3.064ZM25.472 8.888L24.6222 10.6985L26.9003 11.7678L27.4276 9.30706L25.472 8.888ZM22.592 7.896L22.1998 9.85718L22.209 9.85898L22.592 7.896ZM19.104 7.704L18.8946 5.71499L18.8946 5.71499L19.104 7.704ZM18.048 7.96L17.2602 6.12171L17.2349 6.13255L17.2099 6.14408L18.048 7.96ZM18.304 9.144L17.6715 11.0414L17.7242 11.0589L17.7778 11.0735L18.304 9.144ZM20.416 9.784L19.8096 11.6899L19.8275 11.6955L19.8455 11.7009L20.416 9.784ZM24.128 11.8L22.5982 13.0883L22.608 13.0999L22.6179 13.1114L24.128 11.8ZM24.928 16.824L22.9756 16.3901L22.9737 16.3986L22.9719 16.4071L24.928 16.824ZM23.296 20.248L21.7541 18.9742L21.7458 18.9843L21.7376 18.9945L23.296 20.248ZM19.936 22.52L20.6261 24.3972L20.6261 24.3972L19.936 22.52ZM14.336 21.32C12.993 21.32 11.7365 21.2114 10.5629 20.9997L9.85307 24.9363C11.2822 25.194 12.7777 25.32 14.336 25.32V21.32ZM10.6002 21.0068C9.45688 20.7782 8.63714 20.4751 8.07407 20.1491L6.06993 23.6109C7.12819 24.2235 8.39912 24.6458 9.81577 24.9292L10.6002 21.0068ZM9.02933 22.2909L10.2453 16.4989L6.33067 15.6771L5.11467 21.4691L9.02933 22.2909ZM7.3447 17.8516C8.4144 18.4237 9.6033 18.8805 10.8978 19.2335L11.9502 15.3745C10.898 15.0875 9.99627 14.7336 9.2313 14.3244L7.3447 17.8516ZM10.9065 19.2359C12.2283 19.5899 13.4935 19.784 14.688 19.784V15.784C13.9198 15.784 13.009 15.658 11.9415 15.3721L10.9065 19.2359ZM14.688 19.784C15.5056 19.784 16.3475 19.6865 17.0961 19.3713L15.5439 15.6847C15.4818 15.7109 15.2357 15.784 14.688 15.784V19.784ZM17.1762 19.3355C18.0195 18.936 18.928 18.0939 18.928 16.728H14.928C14.928 16.4706 15.0151 16.1956 15.1837 15.9738C15.2579 15.8761 15.3308 15.8117 15.3815 15.7734C15.4313 15.7358 15.4633 15.7208 15.4638 15.7205L17.1762 19.3355ZM18.928 16.728C18.928 15.8607 18.5022 15.1885 18.0019 14.7572C17.553 14.3702 17.0279 14.1529 16.5928 14.0179L15.4072 17.8381C15.5907 17.8951 15.5297 17.9072 15.3901 17.7868C15.3086 17.7165 15.1875 17.5895 15.0874 17.3929C14.9831 17.1878 14.928 16.9576 14.928 16.728H18.928ZM16.5928 14.0179C16.0566 13.8515 15.3193 13.5783 14.3635 13.1835L12.8365 16.8805C13.8433 17.2964 14.7061 17.6205 15.4072 17.8381L16.5928 14.0179ZM14.3774 13.1893C13.1452 12.6694 12.389 12.1582 11.9638 11.7197L9.0922 14.5043C10.0323 15.4738 11.3241 16.2426 12.8226 16.8747L14.3774 13.1893ZM11.9844 11.7413C11.7054 11.4449 11.504 11.0241 11.504 10.296H7.504C7.504 11.8719 7.98524 13.3285 9.0716 14.4827L11.9844 11.7413ZM11.504 10.296C11.504 9.89361 11.5561 9.45414 11.6722 8.97328L7.78384 8.03472C7.60124 8.79119 7.504 9.54639 7.504 10.296H11.504ZM11.683 8.92568C12.0611 7.17288 12.8392 6.05632 13.9259 5.34633L11.7381 1.99767C9.62483 3.37834 8.33357 5.48312 7.77296 8.08232L11.683 8.92568ZM13.9414 5.3361C15.0537 4.59454 17.0208 4.072 20.16 4.072V0.0719986C16.7285 0.0719986 13.8103 0.616121 11.7226 2.0079L13.9414 5.3361ZM20.16 4.072C20.7404 4.072 21.3986 4.11748 22.1391 4.21491L22.6609 0.24909C21.7801 0.133188 20.945 0.0719986 20.16 0.0719986V4.072ZM22.1906 4.22101C22.9459 4.30051 23.6776 4.40944 24.3863 4.54723L25.1497 0.620769C24.3224 0.45989 23.4754 0.334153 22.6094 0.242988L22.1906 4.22101ZM24.3863 4.54723C25.105 4.68697 25.6746 4.82938 26.1104 4.96885L27.3296 1.15915C26.6987 0.957285 25.9671 0.77969 25.1497 0.620769L24.3863 4.54723ZM24.7644 2.64494L23.5164 8.46894L27.4276 9.30706L28.6756 3.48306L24.7644 2.64494ZM26.3218 7.07753C25.169 6.53641 24.0503 6.14283 22.975 5.93302L22.209 9.85898C22.8831 9.99051 23.6843 10.2583 24.6222 10.6985L26.3218 7.07753ZM22.9842 5.93484C22.0351 5.74501 21.1325 5.64 20.288 5.64V9.64C20.8089 9.64 21.4423 9.70566 22.1998 9.85716L22.9842 5.93484ZM20.288 5.64C19.83 5.64 19.3653 5.66544 18.8946 5.71499L19.3134 9.69301C19.6534 9.65722 19.978 9.64 20.288 9.64V5.64ZM18.8946 5.71499C18.3383 5.77355 17.7829 5.89768 17.2602 6.12171L18.8358 9.79829C18.9104 9.76632 19.059 9.71978 19.3134 9.69301L18.8946 5.71499ZM17.2099 6.14408C16.8473 6.31143 16.4354 6.58487 16.1146 7.02902C15.7789 7.49385 15.632 8.02349 15.632 8.536H19.632C19.632 8.7925 19.5544 9.09815 19.3574 9.37098C19.1753 9.62313 18.9714 9.73656 18.8861 9.77592L17.2099 6.14408ZM15.632 8.536C15.632 9.33156 16.0096 9.9572 16.4582 10.3631C16.8583 10.7251 17.3171 10.9232 17.6715 11.0414L18.9365 7.24663C18.8429 7.21544 18.9657 7.2376 19.1418 7.39693C19.2408 7.48643 19.3688 7.6308 19.4711 7.84033C19.577 8.05718 19.632 8.29679 19.632 8.536H15.632ZM17.7778 11.0735C18.2051 11.1901 18.8764 11.3929 19.8096 11.6899L21.0224 7.87815C20.0782 7.57773 19.3416 7.35393 18.8302 7.21447L17.7778 11.0735ZM19.8455 11.7009C21.5136 12.1974 22.2945 12.7277 22.5982 13.0883L25.6578 10.5117C24.5962 9.25101 22.9024 8.43731 20.9865 7.8671L19.8455 11.7009ZM22.6179 13.1114C22.9819 13.5305 23.184 14.0358 23.184 14.744H27.184C27.184 13.1482 26.6821 11.6909 25.6381 10.4886L22.6179 13.1114ZM23.184 14.744C23.184 14.9752 23.1686 15.2228 23.1354 15.4879L27.1046 15.9841C27.1568 15.5665 27.184 15.1528 27.184 14.744H23.184ZM23.1354 15.4879C23.1016 15.7588 23.0492 16.059 22.9756 16.3901L26.8804 17.2579C26.9775 16.821 27.0531 16.3959 27.1046 15.9841L23.1354 15.4879ZM22.9719 16.4071C22.7585 17.4084 22.3504 18.2524 21.7541 18.9742L24.8379 21.5218C25.863 20.2809 26.5428 18.8423 26.8841 17.2409L22.9719 16.4071ZM21.7376 18.9945C21.2223 19.6351 20.4331 20.2064 19.2459 20.6428L20.6261 24.3972C22.3402 23.767 23.791 22.8236 24.8544 21.5015L21.7376 18.9945ZM19.2459 20.6428C18.0949 21.066 16.4849 21.32 14.336 21.32V25.32C16.7525 25.32 18.8758 25.0407 20.6261 24.3972L19.2459 20.6428ZM29.3943 23L27.3947 23.0435L27.4373 25H29.3943V23ZM28.9463 2.392V0.391998H26.9023L26.9467 2.43547L28.9463 2.392ZM36.4983 2.392L38.4981 2.41639L38.5228 0.391998H36.4983V2.392ZM36.4023 10.264L34.4024 10.2396L38.2041 11.132L36.4023 10.264ZM38.5143 5.88L40.3161 6.74803L40.4212 6.52986L40.4712 6.29292L38.5143 5.88ZM39.2503 2.392V0.391998H37.6282L37.2933 1.97907L39.2503 2.392ZM45.5543 2.392L47.5477 2.23058L47.3989 0.391998H45.5543V2.392ZM46.1943 10.296L44.2008 10.4574L48.0295 11.091L46.1943 10.296ZM49.6183 2.392V0.391998H48.3051L47.7831 1.59699L49.6183 2.392ZM57.1383 2.392L58.9672 3.20138L60.2104 0.391998H57.1383V2.392ZM48.0183 23V25H49.3203L49.8472 23.8094L48.0183 23ZM41.4903 23L39.4991 23.1881L39.6703 25H41.4903V23ZM40.7223 14.872L42.7134 14.6839L42.0895 8.08138L38.9591 13.9279L40.7223 14.872ZM36.3703 23V25H37.568L38.1334 23.9441L36.3703 23ZM31.3938 22.9565L30.9458 2.34853L26.9467 2.43547L27.3947 23.0435L31.3938 22.9565ZM28.9463 4.392H36.4983V0.391998H28.9463V4.392ZM34.4984 2.36761L34.4024 10.2396L38.4021 10.2884L38.4981 2.41639L34.4984 2.36761ZM38.2041 11.132L40.3161 6.74803L36.7124 5.01197L34.6004 9.39597L38.2041 11.132ZM40.4712 6.29292L41.2072 2.80492L37.2933 1.97907L36.5573 5.46707L40.4712 6.29292ZM39.2503 4.392H45.5543V0.391998H39.2503V4.392ZM43.5608 2.55341L44.2008 10.4574L48.1877 10.1346L47.5477 2.23058L43.5608 2.55341ZM48.0295 11.091L51.4535 3.187L47.7831 1.59699L44.359 9.50099L48.0295 11.091ZM49.6183 4.392H57.1383V0.391998H49.6183V4.392ZM55.3093 1.58262L46.1893 22.1906L49.8472 23.8094L58.9672 3.20138L55.3093 1.58262ZM48.0183 21H41.4903V25H48.0183V21ZM43.4814 22.8119L42.7134 14.6839L38.7311 15.0601L39.4991 23.1881L43.4814 22.8119ZM38.9591 13.9279L34.6071 22.0559L38.1334 23.9441L42.4854 15.8161L38.9591 13.9279ZM36.3703 21H29.3943V25H36.3703V21ZM54.3905 23L52.4337 22.5868L51.924 25H54.3905V23ZM58.7425 2.392V0.391998H57.1207L56.7857 1.97875L58.7425 2.392ZM66.4865 2.392L68.4433 2.80524L68.953 0.391998H66.4865V2.392ZM62.1345 23V25H63.7563L64.0913 23.4132L62.1345 23ZM56.3473 23.4132L60.6993 2.80524L56.7857 1.97875L52.4337 22.5868L56.3473 23.4132ZM58.7425 4.392H66.4865V0.391998H58.7425V4.392ZM64.5297 1.97875L60.1777 22.5868L64.0913 23.4132L68.4433 2.80524L64.5297 1.97875ZM62.1345 21H54.3905V25H62.1345V21ZM64.4217 23L62.4649 22.5868L61.9553 25H64.4217V23ZM68.7738 2.392V0.391998H67.152L66.8169 1.97875L68.7738 2.392ZM85.2538 2.392L87.21 2.80798L87.7238 0.391998H85.2538V2.392ZM84.0698 7.96V9.96H85.6892L86.026 8.37599L84.0698 7.96ZM75.3338 7.96V5.96H73.7052L73.3752 7.55479L75.3338 7.96ZM74.9498 9.816L72.9912 9.41079L72.4936 11.816H74.9498V9.816ZM82.4698 9.816L84.4266 10.2291L84.9361 7.816H82.4698V9.816ZM81.2537 15.576V17.576H82.8756L83.2106 15.9891L81.2537 15.576ZM73.7338 15.576V13.576H72.112L71.7769 15.1627L73.7338 15.576ZM72.1658 23V25H73.7875L74.1226 23.4133L72.1658 23ZM66.3786 23.4132L70.7306 2.80524L66.8169 1.97875L62.4649 22.5868L66.3786 23.4132ZM68.7738 4.392H85.2538V0.391998H68.7738V4.392ZM83.2975 1.97601L82.1135 7.54401L86.026 8.37599L87.21 2.80798L83.2975 1.97601ZM84.0698 5.96H75.3338V9.96H84.0698V5.96ZM73.3752 7.55479L72.9912 9.41079L76.9083 10.2212L77.2923 8.36521L73.3752 7.55479ZM74.9498 11.816H82.4698V7.816H74.9498V11.816ZM80.5129 9.40288L79.2969 15.1629L83.2106 15.9891L84.4266 10.2291L80.5129 9.40288ZM81.2537 13.576H73.7338V17.576H81.2537V13.576ZM71.7769 15.1627L70.2089 22.5867L74.1226 23.4133L75.6906 15.9893L71.7769 15.1627ZM72.1658 21H64.4217V25H72.1658V21ZM86.1435 23L84.1864 22.5878L83.6783 25H86.1435V23ZM89.3115 7.96L91.2686 8.37223L91.7767 5.96H89.3115V7.96ZM84.0635 7.96L82.1072 7.54401L81.5935 9.96H84.0635V7.96ZM85.2475 2.392V0.391998H83.6281L83.2912 1.97601L85.2475 2.392ZM103.488 2.392L105.444 2.80798L105.958 0.391998H103.488V2.392ZM102.304 7.96V9.96H103.923L104.26 8.37599L102.304 7.96ZM97.0555 7.96V5.96H95.4329L95.0984 7.54777L97.0555 7.96ZM93.8875 23V25H95.5101L95.8446 23.4122L93.8875 23ZM88.1006 23.4122L91.2686 8.37223L87.3544 7.54777L84.1864 22.5878L88.1006 23.4122ZM89.3115 5.96H84.0635V9.96H89.3115V5.96ZM86.0198 8.37599L87.2038 2.80798L83.2912 1.97601L82.1072 7.54401L86.0198 8.37599ZM85.2475 4.392H103.488V0.391998H85.2475V4.392ZM101.531 1.97601L100.347 7.54401L104.26 8.37599L105.444 2.80798L101.531 1.97601ZM102.304 5.96H97.0555V9.96H102.304V5.96ZM95.0984 7.54777L91.9304 22.5878L95.8446 23.4122L99.0126 8.37223L95.0984 7.54777ZM93.8875 21H86.1435V25H93.8875V21ZM100.265 23L98.3087 22.5868L97.799 25H100.265V23ZM104.618 2.392V0.391998H102.996L102.661 1.97875L104.618 2.392ZM121.098 2.392L123.054 2.80798L123.568 0.391998H121.098V2.392ZM119.914 7.96V9.96H121.533L121.87 8.37599L119.914 7.96ZM111.178 7.96V5.96H109.549L109.219 7.55479L111.178 7.96ZM110.794 9.816L108.835 9.41079L108.337 11.816H110.794V9.816ZM118.314 9.816L120.27 10.2291L120.78 7.816H118.314V9.816ZM117.097 15.576V17.576H118.719L119.054 15.9891L117.097 15.576ZM109.578 15.576V13.576H107.976L107.626 15.1386L109.578 15.576ZM109.161 17.432L107.21 16.9946L106.664 19.432H109.161V17.432ZM117.898 17.432L119.856 17.8372L120.354 15.432H117.898V17.432ZM116.746 23V25H118.374L118.704 23.4052L116.746 23ZM102.222 23.4132L106.574 2.80524L102.661 1.97875L98.3087 22.5868L102.222 23.4132ZM104.618 4.392H121.098V0.391998H104.618V4.392ZM119.141 1.97601L117.957 7.54401L121.87 8.37599L123.054 2.80798L119.141 1.97601ZM119.914 5.96H111.178V9.96H119.914V5.96ZM109.219 7.55479L108.835 9.41079L112.752 10.2212L113.136 8.36521L109.219 7.55479ZM110.794 11.816H118.314V7.816H110.794V11.816ZM116.357 9.40288L115.141 15.1629L119.054 15.9891L120.27 10.2291L116.357 9.40288ZM117.097 13.576H109.578V17.576H117.097V13.576ZM107.626 15.1386L107.21 16.9946L111.113 17.8694L111.529 16.0134L107.626 15.1386ZM109.161 19.432H117.898V15.432H109.161V19.432ZM115.939 17.0268L114.787 22.5948L118.704 23.4052L119.856 17.8372L115.939 17.0268ZM116.746 21H100.265V25H116.746V21ZM118.047 23L116.09 22.5868L115.58 25H118.047V23ZM122.399 2.392V0.391998H120.777L120.442 1.97875L122.399 2.392ZM138.655 4.056L137.241 5.47021L137.247 5.47695L137.254 5.48362L138.655 4.056ZM140.159 10.104L138.2 9.69878L138.198 9.71177L140.159 10.104ZM138.431 13.752L136.897 12.4686L136.894 12.4716L138.431 13.752ZM135.199 16.344L134.247 14.5849L131.615 16.009L133.938 17.8962L135.199 16.344ZM135.839 17.4L133.878 17.7922L133.882 17.8137L133.887 17.835L135.839 17.4ZM137.087 23V25H139.582L139.039 22.565L137.087 23ZM129.023 23L127.074 23.4497L127.432 25H129.023V23ZM127.967 18.424L126.002 18.7982L126.009 18.8361L126.018 18.8737L127.967 18.424ZM126.879 17.752V15.752H125.251L124.92 17.346L126.879 17.752ZM125.791 23V25H127.419L127.749 23.406L125.791 23ZM128.191 11.704L126.232 11.3007L125.737 13.704H128.191V11.704ZM132.287 10.104L134.248 10.4962L134.248 10.4962L132.287 10.104ZM132.319 9.816L130.378 9.33092L130.319 9.56978V9.816H132.319ZM128.863 8.44V6.44H127.233L126.904 8.03669L128.863 8.44ZM120.004 23.4132L124.356 2.80524L120.442 1.97875L116.09 22.5868L120.004 23.4132ZM122.399 4.392H133.983V0.391998H122.399V4.392ZM133.983 4.392C135.612 4.392 136.603 4.83277 137.241 5.47021L140.069 2.64179C138.488 1.06056 136.364 0.391998 133.983 0.391998V4.392ZM137.254 5.48362C137.965 6.18068 138.351 7.06711 138.351 8.312H142.351C142.351 6.10089 141.606 4.14999 140.055 2.62838L137.254 5.48362ZM138.351 8.312C138.351 8.73949 138.303 9.20073 138.2 9.69879L142.117 10.5092C142.27 9.76993 142.351 9.03651 142.351 8.312H138.351ZM138.198 9.71177C137.983 10.7831 137.549 11.6897 136.897 12.4686L139.965 15.0354C141.062 13.7236 141.78 12.1983 142.12 10.4962L138.198 9.71177ZM136.894 12.4716C136.221 13.28 135.349 13.9886 134.247 14.5849L136.15 18.1031C137.651 17.2914 138.934 16.272 139.967 15.0324L136.894 12.4716ZM133.938 17.8962C133.942 17.9001 133.925 17.8861 133.904 17.8526C133.895 17.8374 133.888 17.8227 133.883 17.8102C133.879 17.798 133.877 17.7912 133.878 17.7922L137.8 17.0078C137.622 16.1194 137.158 15.3591 136.46 14.7918L133.938 17.8962ZM133.887 17.835L135.135 23.435L139.039 22.565L137.791 16.965L133.887 17.835ZM137.087 21H129.023V25H137.087V21ZM130.972 22.5503L129.916 17.9743L126.018 18.8737L127.074 23.4497L130.972 22.5503ZM129.931 18.0498C129.834 17.536 129.59 16.9072 129.028 16.4148C128.45 15.9089 127.769 15.752 127.199 15.752V19.752C127.055 19.752 126.716 19.7071 126.394 19.4252C126.087 19.1568 126.015 18.864 126.002 18.7982L129.931 18.0498ZM127.199 15.752H126.879V19.752H127.199V15.752ZM124.92 17.346L123.832 22.594L127.749 23.406L128.837 18.158L124.92 17.346ZM125.791 21H118.047V25H125.791V21ZM128.191 13.704H130.079V9.704H128.191V13.704ZM130.079 13.704C130.971 13.704 131.93 13.5165 132.748 12.9235C133.602 12.3052 134.063 11.4204 134.248 10.4962L130.326 9.71177C130.309 9.79361 130.294 9.80756 130.309 9.78345C130.326 9.75423 130.359 9.71522 130.401 9.6845C130.44 9.65622 130.453 9.65987 130.408 9.67187C130.359 9.68491 130.256 9.704 130.079 9.704V13.704ZM134.248 10.4962C134.288 10.2937 134.319 10.0631 134.319 9.816H130.319C130.319 9.77601 130.321 9.7471 130.323 9.73114C130.325 9.71503 130.326 9.70821 130.326 9.71177L134.248 10.4962ZM134.259 10.3011C134.319 10.062 134.351 9.81383 134.351 9.56H130.351C130.351 9.47683 130.361 9.39933 130.378 9.33092L134.259 10.3011ZM134.351 9.56C134.351 8.70939 134.043 7.77436 133.194 7.12834C132.448 6.5609 131.566 6.44 130.879 6.44V10.44C131.004 10.44 131.047 10.4526 131.031 10.4486C131.013 10.444 130.906 10.4142 130.772 10.3117C130.626 10.2009 130.503 10.0469 130.427 9.87255C130.356 9.71005 130.351 9.58993 130.351 9.56H134.351ZM130.879 6.44H128.863V10.44H130.879V6.44ZM126.904 8.03669L126.232 11.3007L130.15 12.1073L130.822 8.84331L126.904 8.03669Z" fill="url(#paint0_linear_242_2609)" mask="url(#path-1-outside-1_242_2609)"/>
</g>
<defs>
<filter id="filter0_d_242_2609" x="0.816406" y="0.0720215" width="145.535" height="33.2479" filterUnits="userSpaceOnUse" color-interpolation-filters="sRGB">
<feFlood flood-opacity="0" result="BackgroundImageFix"/>
<feColorMatrix in="SourceAlpha" type="matrix" values="0 0 0 0 0 0 0 0 0 0 0 0 0 0 0 0 0 0 127 0" result="hardAlpha"/>
<feOffset dy="4"/>
<feGaussianBlur stdDeviation="2"/>
<feComposite in2="hardAlpha" operator="out"/>
<feColorMatrix type="matrix" values="0 0 0 0 0 0 0 0 0 0 0 0 0 0 0 0 0 0 0.25 0"/>
<feBlend mode="normal" in2="BackgroundImageFix" result="effect1_dropShadow_242_2609"/>
<feBlend mode="normal" in="SourceGraphic" in2="effect1_dropShadow_242_2609" result="shape"/>
</filter>
<linearGradient id="paint0_linear_242_2609" x1="74" y1="-12" x2="74" y2="36" gradientUnits="userSpaceOnUse">
<stop stop-color="#800080"/>
<stop offset="1" stop-color="#79AAF0"/>
</linearGradient>
</defs>
</svg>
